HIERARCHY
ROOT Hips
{
 OFFSET 0.000000 0.000000 0.000000
 CHANNELS 6 Xposition Yposition Zposition Yrotation Xrotation Zrotation
 JOINT Chest
 {
  OFFSET 0.000000 9.585900 0.002600
  CHANNELS 3 Yrotation Xrotation Zrotation
  JOINT Chest2
  {
   OFFSET 0.000000 9.601200 -0.005300
   CHANNELS 3 Yrotation Xrotation Zrotation
   JOINT Chest3
   {
    OFFSET 0.000000 9.561800 0.000000
    CHANNELS 3 Yrotation Xrotation Zrotation
    JOINT Chest4
    {
     OFFSET 0.000000 9.552100 0.000000
     CHANNELS 3 Yrotation Xrotation Zrotation
     JOINT Neck
     {
      OFFSET 0.000000 14.453000 0.000000
      CHANNELS 3 Yrotation Xrotation Zrotation
      JOINT Head
      {
       OFFSET 0.000000 8.936500 -0.011300
       CHANNELS 3 Yrotation Xrotation Zrotation
       End Site
       {
        OFFSET 0.000000 17.073600 -0.006000
       }
      }
     }
     JOINT RightCollar
     {
      OFFSET -2.921100 9.558500 0.000000
      CHANNELS 3 Yrotation Xrotation Zrotation
      JOINT RightShoulder
      {
       OFFSET -13.519700 0.000000 0.000000
       CHANNELS 3 Yrotation Xrotation Zrotation
       JOINT RightElbow
       {
        OFFSET 0.000000 -29.696600 0.000000
        CHANNELS 3 Yrotation Xrotation Zrotation
        JOINT RightWrist
        {
         OFFSET 0.000000 -24.004700 0.000000
         CHANNELS 3 Yrotation Xrotation Zrotation
         End Site
         {
          OFFSET 0.000000 -17.728500 0.000000
         }
        }
       }
      }
     }
     JOINT LeftCollar
     {
      OFFSET 2.921100 9.558500 0.000000
      CHANNELS 3 Yrotation Xrotation Zrotation
      JOINT LeftShoulder
      {
       OFFSET 13.519700 0.000000 0.000000
       CHANNELS 3 Yrotation Xrotation Zrotation
       JOINT LeftElbow
       {
        OFFSET 0.000000 -29.696600 0.000000
        CHANNELS 3 Yrotation Xrotation Zrotation
        JOINT LeftWrist
        {
         OFFSET 0.000000 -24.004700 0.000000
         CHANNELS 3 Yrotation Xrotation Zrotation
         End Site
         {
          OFFSET 0.000000 -17.728500 0.000000
         }
        }
       }
      }
     }
    }
   }
  }
 }
 JOINT RightHip
 {
  OFFSET -7.771700 -0.012900 -0.001300
  CHANNELS 3 Yrotation Xrotation Zrotation
  JOINT RightKnee
  {
   OFFSET 0.000000 -40.869800 0.001200
   CHANNELS 3 Yrotation Xrotation Zrotation
   JOINT RightAnkle
   {
    OFFSET 0.000000 -39.717900 0.002100
    CHANNELS 3 Yrotation Xrotation Zrotation
    JOINT RightToe
    {
     OFFSET 0.000000 -4.965400 11.033500
     CHANNELS 3 Yrotation Xrotation Zrotation
     End Site
     {
      OFFSET 0.000000 -1.423100 5.872300
     }
    }
   }
  }
 }
 JOINT LeftHip
 {
  OFFSET 7.771700 -0.012900 -0.001300
  CHANNELS 3 Yrotation Xrotation Zrotation
  JOINT LeftKnee
  {
   OFFSET 0.000000 -40.869800 0.001200
   CHANNELS 3 Yrotation Xrotation Zrotation
   JOINT LeftAnkle
   {
    OFFSET 0.000000 -39.717900 0.002100
    CHANNELS 3 Yrotation Xrotation Zrotation
    JOINT LeftToe
    {
     OFFSET 0.000000 -4.965400 11.033500
     CHANNELS 3 Yrotation Xrotation Zrotation
     End Site
     {
      OFFSET 0.000000 -1.423100 5.872300
     }
    }
   }
  }
 }
}
MOTION
Frames: 6
Frame Time: 0.008333
-37.216003 43.730616 23.783151 176.679909 -28.393689 1.236347 -0.611066 18.077407 3.222575 -0.121790 2.065510 0.445232 -0.201427 3.455225 0.746036 -0.549998 15.810283 3.376323 -3.390014 7.684531 -1.109035 -3.463653 -17.608508 -0.400602 11.057109 -0.321323 -5.685411 -10.716047 -5.065894 -6.066049 82.576746 -81.998972 -73.569065 -0.734212 3.909288 -23.697825 -13.577761 -3.642447 -5.599899 18.885347 5.889197 4.359250 132.856237 -72.105661 -157.294198 20.365811 11.998931 37.170293 3.220125 -62.581036 5.384508 -170.543140 66.774193 -168.858563 -19.713327 -29.262013 12.553991 0.532231 -0.805794 0.204261 0.783212 -46.038831 -3.436479 172.539293 57.011417 172.439725 0.738680 -42.253978 -1.722347 0.101779 -5.950236 -0.808771
-37.210880 43.711735 23.757556 176.599959 -28.195820 1.232992 -0.532605 17.965447 3.284480 -0.124201 2.058746 0.449057 -0.196933 3.406526 0.740915 -0.548040 15.738302 3.391960 -3.366145 7.677056 -1.127198 -3.432901 -17.616542 -0.426349 11.082794 -0.344991 -5.696331 -10.737145 -5.077273 -6.117754 84.936161 -82.213957 -75.775478 -0.728823 3.969425 -23.601858 -13.581008 -3.674647 -5.585020 18.879312 5.886271 4.379761 133.037741 -72.093319 -157.459559 20.338891 11.942321 37.079435 3.221606 -62.784486 5.454217 -170.580846 66.745817 -168.893001 -19.683930 -29.331806 12.573796 0.481143 -0.751439 0.175956 0.847594 -46.230865 -3.333998 172.655183 56.957380 172.519522 0.740372 -42.242477 -1.715882 0.063089 -6.029587 -0.758842
-37.210599 43.695964 23.727374 176.587558 -28.045383 1.229046 -0.524258 17.899723 3.312977 -0.117369 2.006606 0.439166 -0.201583 3.409084 0.750114 -0.546665 15.673391 3.407031 -3.339895 7.660516 -1.143351 -3.400299 -17.634470 -0.450410 11.111930 -0.368370 -5.706678 -10.759097 -5.085257 -6.153589 87.436758 -82.415827 -78.136125 -0.726808 4.024955 -23.508895 -13.580776 -3.683294 -5.598093 18.874507 5.882796 4.389482 133.485521 -72.104793 -157.892254 20.300923 11.911386 36.977639 3.217331 -62.936103 5.456014 -170.637746 66.702087 -168.932153 -19.709163 -29.381147 12.590026 0.473203 -0.735666 0.170681 0.892405 -46.373919 -3.281084 172.755364 56.905141 172.586571 0.703447 -42.256563 -1.666507 0.047414 -6.083555 -0.725927
-37.215180 43.680110 23.699190 176.580763 -27.897184 1.249754 -0.528044 17.835637 3.312922 -0.111912 1.955287 0.429441 -0.205488 3.415973 0.759392 -0.546696 15.614723 3.421065 -3.326512 7.656230 -1.168843 -3.355138 -17.683806 -0.462963 11.146545 -0.391694 -5.714540 -10.783831 -5.079898 -6.181318 90.136386 -82.613904 -80.709580 -0.726019 4.077558 -23.419134 -13.579280 -3.700139 -5.608652 18.841528 5.827738 4.440825 133.863866 -72.149147 -158.213678 20.233243 11.890203 36.850169 3.259855 -63.084920 5.399788 -170.696786 66.659322 -168.980609 -19.737640 -29.430289 12.608082 0.461219 -0.722075 0.166894 0.943447 -46.517761 -3.281910 172.817622 56.859809 172.613986 0.698877 -42.257492 -1.662751 0.011422 -6.136394 -0.683461
-37.222804 43.666229 23.669878 176.626839 -27.774394 1.261693 -0.582039 17.795093 3.295819 -0.114446 1.939424 0.430051 -0.202301 3.392725 0.758804 -0.547586 15.562538 3.434950 -3.312898 7.641220 -1.193427 -3.309215 -17.740322 -0.474632 11.181087 -0.416351 -5.719507 -10.807720 -5.055637 -6.213252 93.111905 -82.822356 -83.572907 -0.724471 4.132617 -23.326215 -13.597506 -3.743757 -5.587428 18.817653 5.809883 4.474912 134.383834 -72.202969 -158.658544 20.145151 11.888502 36.703131 3.289537 -63.203731 5.304731 -170.707287 66.599845 -168.979372 -19.737743 -29.485115 12.614884 0.468282 -0.726379 0.171153 0.966492 -46.642955 -3.318142 172.859976 56.825470 172.644430 0.667479 -42.243335 -1.689504 0.011439 -6.186585 -0.609717
-37.223209 43.650680 23.647193 176.604510 -27.625916 1.256276 -0.558895 17.732361 3.329479 -0.113014 1.921302 0.431608 -0.198571 3.349451 0.749323 -0.548622 15.539673 3.450375 -3.283580 7.596018 -1.197476 -3.275019 -17.777302 -0.496705 11.210554 -0.438783 -5.713998 -10.845360 -5.082275 -6.211239 95.906749 -83.014907 -86.237835 -0.720637 4.201636 -23.225880 -13.645434 -3.798721 -5.517801 18.813103 5.837196 4.465488 135.088845 -72.258852 -159.280352 20.043921 11.905591 36.540776 3.293411 -63.355014 5.319261 -170.702363 66.569042 -168.974949 -19.699671 -29.508294 12.609300 0.477293 -0.722787 0.178789 1.016736 -46.785617 -3.256545 172.961307 56.782060 172.708092 0.644336 -42.258512 -1.651684 -0.016014 -6.228621 -0.568707
